<svg width="22" height="22" viewBox="0 0 22 22" fill="none" xmlns="http://www.w3.org/2000/svg">
<path d="M22 11C22 8.82441 21.3549 6.69767 20.1462 4.88873C18.9375 3.07979 17.2195 1.66989 15.2095 0.837325C13.1995 0.00476117 10.9878 -0.213076 8.85401 0.211362C6.72022 0.635799 4.7602 1.68345 3.22183 3.22183C1.68345 4.7602 0.635799 6.72022 0.211362 8.85401C-0.213076 10.9878 0.0047612 13.1995 0.837325 15.2095C1.66989 17.2195 3.07979 18.9375 4.88873 20.1462C6.69767 21.3549 8.82441 22 11 22L11 11H22Z" fill="url(#paint0_linear_85_51)"/>
<path d="M22 11C22 8.82441 21.3549 6.69767 20.1462 4.88873C18.9375 3.07979 17.2195 1.66989 15.2095 0.837325C13.1995 0.00476117 10.9878 -0.213076 8.85401 0.211362C6.72022 0.635799 4.7602 1.68345 3.22183 3.22183C1.68345 4.7602 0.635799 6.72022 0.211362 8.85401C-0.213076 10.9878 0.0047612 13.1995 0.837325 15.2095C1.66989 17.2195 3.07979 18.9375 4.88873 20.1462C6.69767 21.3549 8.82441 22 11 22L11 11H22Z" fill="white"/>
<defs>
<linearGradient id="paint0_linear_85_51" x1="11.0089" y1="22" x2="10.8661" y2="0.000813475" gradientUnits="userSpaceOnUse">
<stop stop-color="#360C6C"/>
<stop offset="1" stop-color="#8D6EFF"/>
</linearGradient>
</defs>
</svg>
