<svg width="250" height="200" viewBox="0 0 250 200" fill="none" xmlns="http://www.w3.org/2000/svg">
<rect width="250" height="200" fill="#121217"/>
<path fill-rule="evenodd" clip-rule="evenodd" d="M207 65C210.866 65 214 68.134 214 72C214 75.866 210.866 79 207 79H167C170.866 79 174 82.134 174 86C174 89.866 170.866 93 167 93H189C192.866 93 196 96.134 196 100C196 103.866 192.866 107 189 107H178.826C173.952 107 170 110.134 170 114C170 116.577 172 118.911 176 121C179.866 121 183 124.134 183 128C183 131.866 179.866 135 176 135H93C89.134 135 86 131.866 86 128C86 124.134 89.134 121 93 121H54C50.134 121 47 117.866 47 114C47 110.134 50.134 107 54 107H94C97.866 107 101 103.866 101 100C101 96.134 97.866 93 94 93H69C65.134 93 62 89.866 62 86C62 82.134 65.134 79 69 79H109C105.134 79 102 75.866 102 72C102 68.134 105.134 65 109 65H207ZM207 93C210.866 93 214 96.134 214 100C214 103.866 210.866 107 207 107C203.134 107 200 103.866 200 100C200 96.134 203.134 93 207 93Z" fill="#27272F"/>
<path fill-rule="evenodd" clip-rule="evenodd" d="M153.672 64.0007L162.974 131.843L163.81 138.65C164.079 140.842 162.52 142.838 160.327 143.107L101.767 150.298C99.5743 150.567 97.5785 149.008 97.3093 146.815L88.2935 73.3874C88.1589 72.2911 88.9386 71.2932 90.0349 71.1586C90.0418 71.1578 90.0488 71.1569 90.0557 71.1562L94.9141 70.6112M98.8426 70.1705L103.43 69.656Z" fill="#FFFCFC"/>
<path d="M154.911 63.8309C154.817 63.1469 154.186 62.6685 153.503 62.7623C152.819 62.856 152.34 63.4865 152.434 64.1705L153.672 64.0007L154.911 63.8309ZM162.974 131.843L164.215 131.691C164.214 131.685 164.213 131.679 164.213 131.674L162.974 131.843ZM163.81 138.65L165.051 138.497L163.81 138.65ZM160.327 143.107L160.48 144.348L160.327 143.107ZM101.767 150.298L101.919 151.538L101.767 150.298ZM97.3093 146.815L98.55 146.663L97.3093 146.815ZM90.0557 71.1562L90.195 72.3984L90.0557 71.1562ZM95.0534 71.8534C95.7394 71.7764 96.2332 71.1579 96.1563 70.4718C96.0793 69.7858 95.4608 69.292 94.7747 69.369L94.9141 70.6112L95.0534 71.8534ZM98.7032 68.9283C98.0172 69.0053 97.5234 69.6238 97.6004 70.3098C97.6773 70.9959 98.2959 71.4897 98.9819 71.4127L98.8426 70.1705L98.7032 68.9283ZM103.569 70.8982C104.255 70.8212 104.749 70.2027 104.672 69.5166C104.595 68.8306 103.976 68.3368 103.29 68.4137L103.43 69.656L103.569 70.8982ZM153.672 64.0007L152.434 64.1705L161.736 132.013L162.974 131.843L164.213 131.674L154.911 63.8309L153.672 64.0007ZM162.974 131.843L161.734 131.996L162.569 138.802L163.81 138.65L165.051 138.497L164.215 131.691L162.974 131.843ZM163.81 138.65L162.569 138.802C162.754 140.31 161.682 141.682 160.175 141.867L160.327 143.107L160.48 144.348C163.357 143.995 165.404 141.375 165.051 138.497L163.81 138.65ZM160.327 143.107L160.175 141.867L101.615 149.057L101.767 150.298L101.919 151.538L160.48 144.348L160.327 143.107ZM101.767 150.298L101.615 149.057C100.107 149.242 98.7351 148.17 98.55 146.663L97.3093 146.815L96.0686 146.967C96.422 149.845 99.0414 151.892 101.919 151.538L101.767 150.298ZM97.3093 146.815L98.55 146.663L89.5342 73.2351L88.2935 73.3874L87.0529 73.5398L96.0686 146.967L97.3093 146.815ZM88.2935 73.3874L89.5342 73.2351C89.4837 72.824 89.7761 72.4498 90.1872 72.3993L90.0349 71.1586L89.8826 69.9179C88.101 70.1367 86.8341 71.7582 87.0529 73.5398L88.2935 73.3874ZM90.0349 71.1586L90.1872 72.3993C90.1898 72.399 90.1924 72.3987 90.195 72.3984L90.0557 71.1562L89.9163 69.914C89.9051 69.9152 89.8938 69.9165 89.8826 69.9179L90.0349 71.1586ZM90.0557 71.1562L90.195 72.3984L95.0534 71.8534L94.9141 70.6112L94.7747 69.369L89.9163 69.914L90.0557 71.1562ZM98.8426 70.1705L98.9819 71.4127L103.569 70.8982L103.43 69.656L103.29 68.4137L98.7032 68.9283L98.8426 70.1705Z" fill="#424344"/>
<path fill-rule="evenodd" clip-rule="evenodd" d="M151.14 68.2686L159.559 129.752L160.317 135.921C160.561 137.908 159.167 139.714 157.203 139.955L104.761 146.394C102.797 146.635 101.008 145.22 100.764 143.233L92.6139 76.8562C92.4792 75.7599 93.2589 74.762 94.3552 74.6274L100.843 73.8308" fill="#A3A4A6"/>
<path d="M110.672 51.25H156.229C156.958 51.25 157.657 51.5393 158.173 52.0547L171.616 65.4902C172.132 66.0059 172.422 66.7053 172.422 67.4346V130C172.422 131.519 171.191 132.75 169.672 132.75H110.672C109.153 132.75 107.922 131.519 107.922 130V54C107.922 52.4812 109.153 51.25 110.672 51.25Z" fill="#FFFCFC" stroke="#424344" stroke-width="2.5"/>
<path d="M156.672 52.4023V63.9995C156.672 65.6564 158.015 66.9995 159.672 66.9995H167.605" stroke="#424344" stroke-width="2.5" stroke-linecap="round" stroke-linejoin="round"/>
<path d="M118 118H144M118 67H144H118ZM118 79H161H118ZM118 92H161H118ZM118 105H161H118Z" stroke="#838485" stroke-width="2.5" stroke-linecap="round" stroke-linejoin="round"/>
</svg>
